<svg width="46" height="46" viewBox="0 0 46 46" fill="none" xmlns="http://www.w3.org/2000/svg">
<path d="M21.1346 20.1207L17.0074 24.248L13.0603 20.2964C12.9173 20.1529 12.8369 19.9584 12.8369 19.7557C12.8369 19.5531 12.9173 19.3586 13.0603 19.2151L16.1017 16.1737C16.2453 16.0306 16.4397 15.9503 16.6424 15.9503C16.8451 15.9503 17.0395 16.0306 17.1831 16.1737L21.1346 20.1207Z" fill="#248FDE"/>
<path d="M22.8572 21.8432L26.98 25.9704L23.3934 29.5525C23.3588 29.5905 23.3194 29.6238 23.2762 29.6516C23.1278 29.7435 22.9532 29.7837 22.7795 29.7657C22.6059 29.7478 22.4431 29.6728 22.3166 29.5525L18.73 25.9704L22.8572 21.8432Z" fill="#248FDE"/>
<path d="M32.6475 19.2161C32.7913 19.3594 32.8723 19.5539 32.8728 19.7568C32.8731 19.8574 32.8534 19.957 32.8147 20.0499C32.776 20.1427 32.7191 20.2269 32.6475 20.2975L28.7005 24.249L24.5732 20.1218L28.5248 16.1748C28.6705 16.0359 28.8642 15.9585 29.0655 15.9585C29.2668 15.9585 29.4604 16.0359 29.6062 16.1748L32.6475 19.2161Z" fill="#248FDE"/>
<path d="M32.5744 4.59006H12.7402C11.6676 4.58941 10.6054 4.80011 9.61433 5.21012C8.62323 5.62013 7.72264 6.22142 6.96402 6.97962C6.2054 7.73783 5.60359 8.63808 5.19303 9.62895C4.78247 10.6198 4.57123 11.6819 4.57129 12.7544V32.0119C4.57123 33.0845 4.78247 34.1465 5.19303 35.1374C5.60359 36.1283 6.2054 37.0285 6.96402 37.7867C7.72264 38.5449 8.62323 39.1462 9.61433 39.5562C10.6054 39.9663 11.6676 40.177 12.7402 40.1763H32.5744C33.6469 40.177 34.7091 39.9663 35.7002 39.5562C36.6913 39.1462 37.5919 38.5449 38.3505 37.7867C39.1091 37.0285 39.7109 36.1283 40.1214 35.1374C40.532 34.1465 40.7433 33.0845 40.7432 32.0119V12.7544C40.7433 11.6819 40.532 10.6198 40.1214 9.62895C39.7109 8.63808 39.1091 7.73783 38.3505 6.97962C37.5919 6.22142 36.6913 5.62013 35.7002 5.21012C34.7091 4.80011 33.6469 4.58941 32.5744 4.59006ZM34.3677 22.0182L29.5736 26.8168L29.56 26.8303L25.1174 31.273C24.8209 31.5707 24.4683 31.8068 24.0801 31.9677C23.6919 32.1285 23.2757 32.2109 22.8555 32.2102C22.3615 32.2106 21.8742 32.0964 21.4317 31.8768C21.4092 31.8632 21.3821 31.8542 21.3596 31.8407C21.319 31.8182 21.2785 31.7956 21.2425 31.7731C21.0038 31.6357 20.7841 31.4676 20.5891 31.273L16.1465 26.8303C16.142 26.8258 16.142 26.8213 16.1375 26.8168L11.3388 22.0182C11.0421 21.7215 10.8067 21.3692 10.6461 20.9815C10.4855 20.5938 10.4028 20.1783 10.4028 19.7586C10.4028 19.3389 10.4855 18.9234 10.6461 18.5357C10.8067 18.148 11.0421 17.7957 11.3388 17.499V17.4945L14.3802 14.4531C14.9801 13.8533 15.7938 13.5163 16.6421 13.5163C17.4904 13.5163 18.3041 13.8533 18.904 14.4531L22.8555 18.4001L26.8025 14.4531C27.0988 14.155 27.4513 13.9187 27.8395 13.7578C28.2278 13.5969 28.6442 13.5147 29.0644 13.5159C29.4846 13.5152 29.9008 13.5976 30.289 13.7584C30.6772 13.9193 31.0298 14.1554 31.3263 14.4531L34.3677 17.4945C34.6651 17.7913 34.9009 18.1438 35.0617 18.532C35.2226 18.9201 35.3052 19.3362 35.3048 19.7563C35.3061 20.1766 35.2238 20.593 35.063 20.9812C34.9021 21.3695 34.6658 21.722 34.3677 22.0182Z" fill="#248FDE"/>
</svg>
