<svg width="40" height="40" viewBox="0 0 40 40" fill="none" xmlns="http://www.w3.org/2000/svg">
<path fill-rule="evenodd" clip-rule="evenodd" d="M23.7489 11.252C23.7173 11.1999 23.6885 11.1535 23.6659 11.117L23.6658 11.1168L23.6656 11.1165L23.6653 11.1161L23.6652 11.1159C23.6437 11.0812 23.6279 11.0557 23.6207 11.0432C22.3547 8.92347 20.8113 6.98225 19.0315 5.27097C18.9508 5.19402 18.8861 5.10195 18.8411 5C18.841 5 18.841 5.00001 18.8409 5.00001C15.7814 5.19808 12.8598 6.34522 10.4829 8.2817C11.0246 8.54074 11.4823 8.94717 11.8036 9.45438C12.1249 9.9616 12.2968 10.5491 12.2995 11.1495C12.2999 11.4101 12.268 11.6697 12.2043 11.9223C12.0598 12.484 11.7648 12.9956 11.3509 13.402C10.7299 14.013 9.89271 14.3539 9.02153 14.3506C8.55004 14.3517 8.08372 14.2522 7.65365 14.059C7.22357 13.8658 6.83961 13.5831 6.52731 13.2299C5.84471 14.6079 5.38367 16.0849 5.16117 17.6065C5.16121 17.6066 5.16125 17.6066 5.16129 17.6066C5.31177 17.6641 5.44004 17.768 5.52755 17.9033C6.94496 20.0349 8.91176 21.694 11.0141 23.4264C11.3275 23.0562 11.718 22.7589 12.1583 22.5552C12.5986 22.3515 13.078 22.2464 13.5631 22.2472C14.0034 22.2468 14.4393 22.3332 14.8461 22.5015C15.2529 22.6698 15.6224 22.9166 15.9337 23.2279C16.245 23.5391 16.4918 23.9087 16.6601 24.3155C16.8284 24.7223 16.9148 25.1582 16.9144 25.5984C16.9145 26.0386 16.8279 26.4744 16.6595 26.881C16.4911 27.2877 16.2443 27.6572 15.9331 27.9684C15.6219 28.2796 15.2524 28.5264 14.8457 28.6948C14.4391 28.8632 14.0033 28.9498 13.5631 28.9497C13.0063 28.9503 12.4584 28.8105 11.9699 28.5432C11.4548 29.4305 11.0256 30.3651 10.6881 31.334C10.6785 31.3672 10.6649 31.3992 10.6478 31.4292C10.6478 31.4293 10.6478 31.4293 10.6478 31.4293C13.2602 33.4929 16.4933 34.6132 19.8225 34.6084C22.029 34.6117 24.208 34.1198 26.1991 33.169C25.5748 32.757 25.1037 32.1507 24.8586 31.4439C24.8586 31.4439 24.8586 31.4439 24.8586 31.4439C22.9614 31.1399 20.6174 30.7553 18.7056 30.0191C18.5017 29.9402 18.3372 29.7839 18.248 29.5843C18.1589 29.3846 18.1522 29.1579 18.2294 28.9533C18.2683 28.8517 18.3268 28.7588 18.4016 28.6799C18.4764 28.601 18.566 28.5376 18.6654 28.4933C18.7647 28.4491 18.8718 28.4249 18.9805 28.4221C19.0892 28.4194 19.1974 28.4381 19.2989 28.4772C20.9214 29.0998 22.9687 29.4624 24.7084 29.7444C24.8253 28.9501 25.222 28.2237 25.827 27.6959C26.432 27.1681 27.2056 26.8737 28.0084 26.8657H28.0157C28.5758 26.8654 29.1266 27.0078 29.6163 27.2796C30.3864 27.7113 30.9598 28.4238 31.2169 29.2684C33.4367 26.609 34.6502 23.2536 34.645 19.7896C34.6485 17.2156 33.9793 14.6854 32.7039 12.4497C32.6373 12.4925 32.5644 12.5246 32.4879 12.5449C31.2482 12.8773 30.0269 13.2747 28.829 13.7352C28.802 13.1742 28.6318 12.6295 28.3345 12.153C29.4113 11.7355 30.781 11.3033 31.7772 11.025C30.5316 9.3249 28.9375 7.91031 27.1014 6.87572C25.2653 5.84116 23.2296 5.21042 21.1302 5.02566C22.6068 6.60071 23.9119 8.32813 25.0235 10.1788C25.0477 10.2152 25.1396 10.3617 25.2473 10.5336L25.2475 10.5339L25.3165 10.644C24.8192 10.6922 24.3418 10.8592 23.9241 11.1298C24.3418 10.8593 24.8191 10.6922 25.3164 10.6441C25.4208 10.6306 25.5261 10.6244 25.6314 10.6258C26.1751 10.627 26.7094 10.7682 27.1828 11.0357C27.6561 11.3032 28.0527 11.688 28.3344 12.1531C28.6317 12.6296 28.8019 13.1743 28.8288 13.7353C28.8325 13.7902 28.8325 13.8488 28.8325 13.9038C28.8426 14.7629 28.511 15.5909 27.9107 16.2056C27.3104 16.8203 26.4905 17.1715 25.6314 17.1818C24.8373 17.1805 24.0727 16.8812 23.4888 16.3431C21.4875 17.7066 19.6351 19.2767 17.962 21.0275C17.8854 21.1089 17.7929 21.1736 17.6902 21.2177C17.5875 21.2618 17.4768 21.2843 17.365 21.2839C17.1524 21.285 16.9475 21.2036 16.7937 21.0568C16.635 20.9057 16.5428 20.6977 16.5373 20.4787C16.5318 20.2596 16.6135 20.0473 16.7644 19.8884C18.5293 18.0437 20.4837 16.3901 22.5951 14.955C22.5951 14.955 22.5951 14.955 22.5951 14.9549C22.4829 14.6159 22.426 14.2609 22.4266 13.9038C22.4249 13.3893 22.5436 12.8815 22.7732 12.4211C23.0028 11.9607 23.3369 11.5603 23.7488 11.2521C23.7489 11.252 23.7489 11.252 23.7489 11.252ZM9.31824 30.2463C9.31826 30.2463 9.31827 30.2462 9.31828 30.2462C9.70887 29.2555 10.183 28.2998 10.7356 27.3895C10.7356 27.3895 10.7356 27.3895 10.7356 27.3895C10.3919 26.8555 10.21 26.2335 10.2119 25.5984C10.2121 25.3634 10.2366 25.129 10.2851 24.899L10.2523 24.9391L10.1927 24.8899C8.36575 23.382 6.50014 21.8422 5.00013 19.9763V19.9726C5.00009 19.9726 5.00004 19.9725 5 19.9725V19.9764C5.04451 23.8319 6.59415 27.5174 9.3182 30.2463C9.31822 30.2463 9.31823 30.2463 9.31824 30.2463ZM29.6164 27.2795C29.6458 27.1934 29.6607 27.103 29.6604 27.0121C29.6707 24.5499 29.4141 22.0938 28.8949 19.6869C28.8719 19.581 28.8283 19.4807 28.7665 19.3917C28.7047 19.3027 28.626 19.2268 28.5348 19.1683C28.4436 19.1098 28.3418 19.0698 28.2352 19.0507C28.1285 19.0316 28.0191 19.0337 27.9133 19.0569C27.8072 19.0801 27.7066 19.124 27.6175 19.1861C27.5284 19.2482 27.4523 19.3273 27.3938 19.4188C27.3353 19.5103 27.2954 19.6125 27.2765 19.7195C27.2575 19.8264 27.2598 19.9361 27.2834 20.0422C27.7634 22.285 28.0065 24.572 28.0086 26.8656H28.0159C28.5759 26.8652 29.1268 27.0077 29.6164 27.2795ZM20.1231 13.9514C20.112 14.1617 20.0208 14.3597 19.8682 14.5048C19.7156 14.6499 19.5132 14.7311 19.3027 14.7315C19.2979 14.7315 19.2933 14.7313 19.289 14.7309C19.2846 14.7305 19.2803 14.73 19.2762 14.7295C19.2689 14.7287 19.262 14.7279 19.255 14.7279C16.5982 14.5539 13.9652 14.1159 11.3951 13.4203C11.3793 13.4174 11.3643 13.4112 11.3512 13.402C11.765 12.9956 12.0601 12.484 12.2046 11.9223C14.5426 12.5363 16.9343 12.9239 19.3466 13.0797C19.4549 13.0858 19.5609 13.1132 19.6585 13.1604C19.7562 13.2075 19.8436 13.2735 19.9157 13.3544C19.9878 13.4354 20.0433 13.5298 20.0789 13.6323C20.1144 13.7347 20.1295 13.8431 20.1231 13.9514Z" fill="#55768B"/>
<path opacity="0.4" fill-rule="evenodd" clip-rule="evenodd" d="M12.2045 11.9223C12.2681 11.6696 12.3001 11.41 12.2997 11.1494C12.2969 10.549 12.125 9.96154 11.8037 9.45432C11.4824 8.94711 11.0247 8.54068 10.483 8.28164C10.0281 8.05895 9.52817 7.94367 9.02168 7.94468C8.16213 7.9354 7.33406 8.26772 6.7194 8.86864C6.10475 9.46956 5.7538 10.2899 5.74365 11.1494C5.74426 11.915 6.02278 12.6542 6.52745 13.2298C6.83975 13.583 7.22372 13.8657 7.65379 14.0589C8.08387 14.2522 8.55018 14.3516 9.02168 14.3506C9.89285 14.3539 10.7301 14.0129 11.3511 13.4019C11.7649 12.9956 12.06 12.484 12.2045 11.9223ZM27.9108 16.2056C28.5111 15.5908 28.8427 14.7629 28.8326 13.9037C28.8326 13.8488 28.8326 13.7902 28.8289 13.7353C28.802 13.1743 28.6318 12.6295 28.3345 12.153C28.0528 11.6879 27.6562 11.3031 27.1828 11.0357C26.7095 10.7682 26.1752 10.627 25.6315 10.6257C25.5262 10.6244 25.4209 10.6305 25.3165 10.644C24.7481 10.6991 24.2058 10.9094 23.7489 11.252C23.337 11.5603 23.0029 11.9606 22.7733 12.4211C22.5437 12.8815 22.425 13.3892 22.4267 13.9037C22.4261 14.2609 22.483 14.6158 22.5952 14.9549C22.7719 15.4853 23.0792 15.9626 23.4889 16.343C24.0728 16.8812 24.8374 17.1805 25.6315 17.1818C26.4906 17.1714 27.3105 16.8203 27.9108 16.2056ZM16.9146 25.5984C16.9147 26.0385 16.8281 26.4743 16.6597 26.881C16.4913 27.2876 16.2445 27.6571 15.9332 27.9683C15.622 28.2795 15.2526 28.5264 14.8459 28.6947C14.4393 28.8631 14.0034 28.9497 13.5633 28.9496C13.0065 28.9502 12.4585 28.8104 11.9701 28.5431C11.4657 28.272 11.0403 27.8744 10.7358 27.3894C10.3921 26.8554 10.2102 26.2334 10.2121 25.5984C10.2123 25.3633 10.2368 25.1288 10.2853 24.8988C10.4011 24.3547 10.6518 23.8485 11.0142 23.4264C11.3276 23.0562 11.7181 22.7588 12.1584 22.5551C12.5987 22.3514 13.0782 22.2463 13.5633 22.2471C14.0035 22.2467 14.4395 22.3331 14.8463 22.5014C15.253 22.6697 15.6226 22.9165 15.9339 23.2278C16.2452 23.5391 16.492 23.9087 16.6603 24.3154C16.8286 24.7222 16.915 25.1582 16.9146 25.5984ZM30.4012 32.698C31.0297 32.0552 31.3771 31.1891 31.3673 30.2902C31.3685 29.9452 31.3179 29.602 31.2171 29.272V29.2684C30.9601 28.4238 30.3866 27.7113 29.6165 27.2796C29.1269 27.0078 28.576 26.8654 28.016 26.8657H28.0087C27.2058 26.8737 26.4322 27.1681 25.8272 27.6959C25.2222 28.2237 24.8256 28.9502 24.7087 29.7445C24.6792 29.9249 24.6645 30.1074 24.6647 30.2902C24.6645 30.6829 24.7301 31.0729 24.8588 31.4439C25.1039 32.1507 25.575 32.757 26.1993 33.169C26.7372 33.5279 27.3694 33.7191 28.016 33.7184C28.9149 33.7079 29.7728 33.3409 30.4012 32.698Z" fill="#55768B"/>
</svg>
