<svg width="40" height="40" viewBox="0 0 40 40" fill="none" xmlns="http://www.w3.org/2000/svg">
<path fill-rule="evenodd" clip-rule="evenodd" d="M21.6098 10.584C21.6084 9.54755 21.7881 8.51878 22.1405 7.54408C22.1894 7.40358 22.204 7.25343 22.1832 7.10614C22.1623 6.95884 22.1066 6.81867 22.0206 6.69728C21.9346 6.57588 21.8208 6.47679 21.6888 6.40825C21.5568 6.3397 21.4103 6.30368 21.2615 6.30319C16.1848 6.26217 10.3895 6.30319 9.56392 6.39402C8.12935 6.48693 6.76628 7.0538 5.68889 8.00557C4.72197 8.97615 4.23485 10.2654 4.0737 11.8806C4.0444 12.0747 3.81732 14.0452 4.23485 14.4627C4.72198 15.111 5.3666 15.111 6.9818 15.111H22.8445C22.0346 13.74 21.6081 12.1764 21.6098 10.584V10.584ZM9.0801 12.6717C8.74272 12.6685 8.42002 12.5333 8.18111 12.295C7.94219 12.0568 7.80606 11.7345 7.80186 11.3971C7.8054 11.0596 7.94131 10.7369 8.18037 10.4985C8.41943 10.2601 8.74252 10.1251 9.0801 10.1225C9.41711 10.1259 9.73935 10.2612 9.97766 10.4996C10.216 10.7379 10.3513 11.0601 10.3547 11.3971C10.3507 11.7339 10.2151 12.0558 9.97695 12.294C9.73878 12.5322 9.4169 12.6677 9.0801 12.6717V12.6717ZM12.8086 12.6717C12.4732 12.6678 12.1528 12.5317 11.9169 12.2931C11.6811 12.0546 11.5488 11.7326 11.5487 11.3971C11.5481 11.0614 11.6802 10.7391 11.9162 10.5004C12.1522 10.2616 12.4729 10.1258 12.8086 10.1225C13.1466 10.1227 13.4707 10.2571 13.7097 10.4961C13.9487 10.7351 14.083 11.0591 14.0832 11.3971C14.0823 11.7349 13.9478 12.0586 13.7089 12.2974C13.4701 12.5363 13.1464 12.6708 12.8086 12.6717V12.6717ZM16.5042 12.6717C16.1672 12.6684 15.8449 12.533 15.6066 12.2947C15.3683 12.0564 15.2329 11.7341 15.2296 11.3971C15.2324 11.0599 15.3675 10.7374 15.606 10.4989C15.8444 10.2605 16.167 10.1253 16.5042 10.1225C16.8412 10.1259 17.1634 10.2612 17.4018 10.4996C17.6401 10.7379 17.7754 11.0601 17.7788 11.3971C17.7748 11.7339 17.6392 12.0558 17.401 12.294C17.1629 12.5322 16.841 12.6677 16.5042 12.6717V12.6717Z" fill="#55768B"/>
<path fill-rule="evenodd" clip-rule="evenodd" d="M34.7322 19.905C34.7323 19.7565 34.6969 19.6101 34.6291 19.478C34.5612 19.3459 34.4629 19.2319 34.3422 19.1454C34.2215 19.0589 34.0819 19.0024 33.935 18.9806C33.7882 18.9588 33.6382 18.9724 33.4976 19.0201C32.549 19.3528 31.5508 19.5221 30.5455 19.5208C28.4208 19.5254 26.3649 18.7678 24.7513 17.3855H5.10515C4.92707 17.3851 4.75068 17.4199 4.58609 17.4878C4.4215 17.5558 4.27195 17.6556 4.14604 17.7815C4.02012 17.9074 3.92033 18.057 3.85237 18.2216C3.7844 18.3862 3.74962 18.5626 3.75 18.7406V23.6632C3.75 26.0841 3.74998 28.0216 3.91114 29.4757C4.00463 30.9097 4.57293 32.2718 5.52635 33.3471C6.49328 34.3176 7.78618 34.8011 9.40138 34.9623C10.8518 35.1234 12.7893 35.1234 15.2103 35.1234H23.2826C25.7036 35.1234 27.6411 35.1234 29.0915 34.9623C30.5268 34.8697 31.8904 34.3014 32.9665 33.3471C33.9334 32.3801 34.4206 31.0909 34.5817 29.4757C34.7429 28.0216 34.7429 26.0841 34.7429 23.6632C34.7429 23.6632 34.7396 21.4385 34.7322 19.905ZM14.6792 24.5532L13.4192 27.6664C13.352 27.8455 13.2335 28.0008 13.0784 28.1128C12.9234 28.2249 12.7387 28.2887 12.5475 28.2963C12.3577 28.3042 12.1696 28.2586 12.0044 28.1647C11.8393 28.0708 11.7039 27.9324 11.6136 27.7653L11.0312 26.6518L10.5294 27.7323C10.4437 27.9055 10.3103 28.0507 10.1448 28.1506C9.97932 28.2505 9.78873 28.3011 9.59549 28.2963C9.40133 28.2917 9.21296 28.2292 9.05444 28.117C8.89592 28.0048 8.77443 27.8479 8.70548 27.6664L7.44555 24.5532C7.35149 24.3042 7.35817 24.0284 7.46417 23.7842C7.57017 23.5401 7.76712 23.3469 8.01325 23.2456C8.25919 23.152 8.53207 23.1586 8.77317 23.2641C9.01428 23.3696 9.20435 23.5655 9.30249 23.8097L9.70536 24.8279L10.0936 24.0038C10.1745 23.836 10.3008 23.6943 10.458 23.5946C10.6153 23.4949 10.7974 23.4413 10.9836 23.4397C11.1688 23.433 11.3521 23.4794 11.5118 23.5735C11.6714 23.6676 11.8008 23.8055 11.8846 23.9708L12.3864 24.9231L12.8222 23.8097C12.921 23.5651 13.1117 23.369 13.3535 23.2635C13.5952 23.1581 13.8687 23.1516 14.1151 23.2456C14.3614 23.3466 14.5583 23.54 14.6637 23.7844C14.7692 24.0288 14.7747 24.3047 14.6792 24.5532ZM22.7991 24.5532L21.5392 27.6664C21.4703 27.8479 21.3488 28.0048 21.1902 28.117C21.0317 28.2292 20.8434 28.2917 20.6492 28.2963C20.456 28.3011 20.2654 28.2505 20.0999 28.1506C19.9344 28.0507 19.801 27.9055 19.7152 27.7323L19.2135 26.6518L18.6348 27.7653C18.5433 27.9322 18.4072 28.0704 18.2415 28.1642C18.0759 28.258 17.8874 28.3038 17.6971 28.2963C17.506 28.2887 17.3213 28.2249 17.1663 28.1128C17.0112 28.0008 16.8927 27.8455 16.8254 27.6664L15.5655 24.5532C15.47 24.3047 15.4755 24.0288 15.5809 23.7844C15.6864 23.54 15.8833 23.3466 16.1296 23.2456C16.376 23.1516 16.6495 23.1581 16.8912 23.2635C17.133 23.369 17.3237 23.5651 17.4225 23.8097L17.8583 24.9231L18.3601 23.9708C18.4439 23.8055 18.5733 23.6676 18.7329 23.5735C18.8926 23.4794 19.0759 23.433 19.2611 23.4397C19.4473 23.4413 19.6294 23.4949 19.7867 23.5946C19.944 23.6943 20.0702 23.836 20.1511 24.0038L20.5393 24.8279L20.9422 23.8097C21.0403 23.5655 21.2304 23.3696 21.4715 23.2641C21.7126 23.1586 21.9855 23.152 22.2314 23.2456C22.3546 23.2942 22.467 23.3665 22.5622 23.4585C22.6574 23.5505 22.7335 23.6603 22.7862 23.7818C22.839 23.9032 22.8672 24.0338 22.8694 24.1662C22.8717 24.2985 22.8478 24.43 22.7991 24.5532V24.5532ZM31.0473 24.5532L29.7874 27.6664C29.7202 27.8455 29.6016 28.0008 29.4466 28.1128C29.2915 28.2249 29.1068 28.2887 28.9157 28.2963C28.7255 28.3038 28.5369 28.258 28.3713 28.1642C28.2057 28.0704 28.0695 27.9322 27.9781 27.7653L27.414 26.6518L26.8976 27.7323C26.8111 27.9057 26.6769 28.0509 26.5109 28.1508C26.3448 28.2507 26.1537 28.3012 25.96 28.2963C25.7664 28.291 25.5788 28.2283 25.421 28.1162C25.2632 28.004 25.1422 27.8474 25.0736 27.6664L23.8137 24.5532C23.7181 24.3047 23.7237 24.0288 23.8291 23.7844C23.9345 23.54 24.1315 23.3466 24.3777 23.2456C24.6242 23.1516 24.8976 23.1581 25.1394 23.2635C25.3811 23.369 25.5719 23.5651 25.6706 23.8097L26.0735 24.8279L26.4617 24.0038C26.5438 23.8377 26.6698 23.6973 26.826 23.5978C26.9823 23.4984 27.1629 23.4437 27.3481 23.4397C27.5339 23.4325 27.7179 23.4786 27.8782 23.5728C28.0386 23.6669 28.1685 23.805 28.2527 23.9708L28.7545 24.9231L29.1904 23.8097C29.2885 23.5655 29.4786 23.3696 29.7197 23.2641C29.9608 23.1586 30.2337 23.152 30.4796 23.2456C30.7257 23.3469 30.9227 23.5401 31.0287 23.7842C31.1347 24.0284 31.1414 24.3042 31.0473 24.5532V24.5532Z" fill="#55768B"/>
<path opacity="0.4" d="M27.4804 11.6242C27.4781 11.5805 27.4592 11.5393 27.4276 11.509C27.396 11.4788 27.3541 11.4617 27.3104 11.4612H24.9542C24.929 11.4612 24.904 11.4666 24.8811 11.4772C24.8582 11.4878 24.8379 11.5032 24.8215 11.5224C24.8052 11.5415 24.7932 11.564 24.7863 11.5883C24.7795 11.6126 24.778 11.6381 24.7819 11.663C24.9563 12.6683 25.3801 13.6137 26.0147 14.4126C26.6493 15.2115 27.4744 15.8383 28.4141 16.2356C28.448 16.2496 28.4855 16.2525 28.5211 16.2438C28.5567 16.2352 28.5887 16.2155 28.6124 16.1876C28.6361 16.1597 28.6504 16.125 28.6532 16.0884C28.6559 16.0519 28.6471 16.0154 28.6278 15.9842C28.0297 14.9924 27.595 13.5301 27.4804 11.6242Z" fill="#55768B"/>
<path opacity="0.4" d="M31.992 11.4612H28.9693C28.9445 11.4626 28.9202 11.4691 28.8979 11.4802C28.8756 11.4913 28.8557 11.5068 28.8396 11.5258C28.8234 11.5447 28.8113 11.5667 28.8038 11.5905C28.7964 11.6143 28.7938 11.6393 28.7963 11.6641C28.9948 14.5344 29.9422 16.25 30.4805 16.25C31.0187 16.25 31.9665 14.5344 32.1646 11.6641C32.1671 11.6393 32.1645 11.6143 32.1571 11.5906C32.1497 11.5668 32.1376 11.5448 32.1215 11.5259C32.1054 11.5069 32.0856 11.4914 32.0633 11.4803C32.0411 11.4692 32.0168 11.4627 31.992 11.4612V11.4612Z" fill="#55768B"/>
<path opacity="0.4" d="M35.8698 11.4612H33.65C33.6062 11.4617 33.5643 11.4788 33.5328 11.509C33.5012 11.5393 33.4823 11.5805 33.48 11.6242C33.4439 13.1159 33.0675 14.5796 32.3795 15.9036C32.3606 15.9353 32.3523 15.9722 32.3558 16.009C32.3592 16.0457 32.3743 16.0804 32.3988 16.108C32.4233 16.1356 32.456 16.1546 32.492 16.1624C32.5281 16.1702 32.5657 16.1663 32.5994 16.1513C33.4939 15.7378 34.2745 15.1133 34.8742 14.3314C35.4738 13.5495 35.8746 12.6337 36.042 11.6626C36.0458 11.6377 36.0443 11.6123 36.0374 11.5881C36.0305 11.5639 36.0185 11.5415 36.0021 11.5224C35.9857 11.5032 35.9655 11.4879 35.9426 11.4773C35.9198 11.4667 35.8949 11.4612 35.8698 11.4612V11.4612Z" fill="#55768B"/>
<path opacity="0.4" d="M28.4141 5.01648C27.4744 5.41299 26.6495 6.03917 26.0148 6.83753C25.3802 7.6359 24.9562 8.58088 24.7819 9.58575C24.778 9.61063 24.7795 9.63606 24.7864 9.66029C24.7933 9.68452 24.8053 9.70698 24.8216 9.72612C24.838 9.74526 24.8583 9.76063 24.8812 9.77118C24.9041 9.78172 24.929 9.78719 24.9541 9.78721H27.3118C27.3555 9.7868 27.3974 9.76976 27.429 9.73954C27.4606 9.70933 27.4795 9.66821 27.4818 9.62456C27.5964 7.72159 28.0311 6.26073 28.6277 5.26821C28.6469 5.237 28.6557 5.20054 28.6529 5.16404C28.6501 5.12754 28.6358 5.09286 28.6121 5.06494C28.5884 5.03703 28.5565 5.01732 28.521 5.00861C28.4854 4.99991 28.448 5.00266 28.4141 5.01648V5.01648Z" fill="#55768B"/>
<path opacity="0.4" d="M28.9693 9.78663H31.9912C32.0161 9.78511 32.0403 9.77859 32.0626 9.76747C32.0849 9.75635 32.1046 9.74085 32.1207 9.7219C32.1369 9.70295 32.149 9.68094 32.1564 9.65719C32.1638 9.63344 32.1663 9.60844 32.1639 9.58368C31.9624 6.71592 31.0179 5 30.4801 5C29.9423 5 28.9978 6.71444 28.7963 9.58368C28.7938 9.60847 28.7964 9.6335 28.8038 9.65727C28.8113 9.68104 28.8234 9.70307 28.8396 9.72203C28.8557 9.74098 28.8756 9.75647 28.8979 9.76757C28.9202 9.77868 28.9445 9.78516 28.9693 9.78663V9.78663Z" fill="#55768B"/>
<path opacity="0.4" d="M33.4801 9.62396C33.4826 9.66758 33.5015 9.70864 33.533 9.73884C33.5646 9.76903 33.6065 9.78611 33.6501 9.78661H35.8681C35.8932 9.78659 35.9181 9.78112 35.941 9.77058C35.9639 9.76003 35.9842 9.74465 36.0006 9.72551C36.0169 9.70637 36.029 9.68391 36.0358 9.65968C36.0427 9.63545 36.0442 9.61003 36.0403 9.58515C35.8717 8.61452 35.4701 7.69929 34.8701 6.91794C34.27 6.1366 33.4894 5.51246 32.5952 5.09905C32.5619 5.08379 32.5247 5.07953 32.4889 5.08689C32.453 5.09425 32.4205 5.11285 32.396 5.13997C32.3714 5.1671 32.3562 5.20135 32.3525 5.23773C32.3487 5.27411 32.3567 5.31073 32.3752 5.34227C33.0659 6.66632 33.4439 8.13105 33.4801 9.62396V9.62396Z" fill="#55768B"/>
</svg>
