<svg width="40" height="40" viewBox="0 0 40 40" fill="none" xmlns="http://www.w3.org/2000/svg">
<path fill-rule="evenodd" clip-rule="evenodd" d="M31.9469 6.94117C30.0057 5 26.9027 5 20.662 5H16.9921C10.7514 5 7.63127 5 5.69119 6.94117C3.75112 8.88235 3.75 12.0014 3.75 18.2421V20.5701C3.75 26.8107 3.75002 29.9309 5.69119 31.871C7.27563 33.4554 9.66839 33.7466 13.9203 33.7949H13.9364C15.0352 33.7949 15.7794 32.5339 15.7794 31.4344C15.7667 30.227 16.223 29.0618 17.0524 28.1842C17.8817 27.3067 19.0193 26.7852 20.2255 26.7298C20.2699 26.7261 20.3112 26.7057 20.3412 26.6728C20.3711 26.6398 20.3875 26.5967 20.387 26.5522C20.3723 25.6219 20.5423 24.698 20.8871 23.8338C21.2319 22.9697 21.7447 22.1825 22.3958 21.5179C23.0469 20.8533 23.8233 20.3245 24.6802 19.962C25.537 19.5995 26.4573 19.4105 27.3877 19.4061C29.0947 19.4279 30.7366 20.0652 32.0113 21.2008C32.2015 21.3583 32.4437 21.4391 32.6904 21.4271C33.2562 21.4271 33.8869 21.0876 33.8869 20.5701V18.2421C33.8869 12.0007 33.8869 8.88125 31.9469 6.94117ZM11.7876 29.0903H9.65227C9.34819 29.0892 9.05692 28.9679 8.84191 28.7529C8.62689 28.5379 8.50558 28.2466 8.50442 27.9425C8.50359 27.7915 8.53271 27.6419 8.59011 27.5022C8.6475 27.3626 8.73203 27.2357 8.83878 27.129C8.94553 27.0222 9.0724 26.9377 9.21204 26.8803C9.35167 26.8229 9.5013 26.7938 9.65227 26.7946H11.7876C11.9385 26.7938 12.0882 26.8229 12.2278 26.8803C12.3675 26.9377 12.4943 27.0222 12.6011 27.129C12.7078 27.2357 12.7923 27.3626 12.8497 27.5022C12.9071 27.6419 12.9363 27.7915 12.9354 27.9425C12.9343 28.2466 12.813 28.5379 12.5979 28.7529C12.3829 28.9679 12.0916 29.0892 11.7876 29.0903ZM15.0052 24.7575H9.65227C9.34845 24.7563 9.0574 24.6352 8.84242 24.4205C8.62745 24.2058 8.50596 23.9149 8.50442 23.6111C8.50548 23.307 8.62676 23.0157 8.8418 22.8006C9.05683 22.5856 9.34816 22.4643 9.65227 22.4632H15.0037C15.1555 22.4622 15.306 22.491 15.4467 22.5481C15.5873 22.6053 15.7153 22.6895 15.8234 22.7961C15.9315 22.9027 16.0175 23.0295 16.0766 23.1694C16.1357 23.3092 16.1666 23.4593 16.1677 23.6111C16.1651 23.9174 16.0411 24.2102 15.8229 24.4252C15.6047 24.6401 15.31 24.7596 15.0037 24.7575H15.0052ZM12.6611 18.808C11.469 18.7994 10.3292 18.3176 9.49223 17.4687C8.6553 16.6197 8.18984 15.4731 8.19823 14.281C8.19158 13.1668 8.5975 12.0895 9.33778 11.2567C10.0781 10.4239 11.1003 9.89452 12.2077 9.77053C12.2669 9.76587 12.3265 9.77382 12.3824 9.79387C12.4383 9.81391 12.4894 9.8456 12.5321 9.88682C12.5749 9.92805 12.6085 9.97788 12.6306 10.033C12.6527 10.0882 12.6628 10.1474 12.6604 10.2067V13.8444C12.6607 13.903 12.6728 13.961 12.6959 14.0148C12.719 14.0687 12.7526 14.1174 12.7948 14.1581C12.837 14.1987 12.8868 14.2306 12.9415 14.2517C12.9962 14.2728 13.0545 14.2828 13.1131 14.281H16.6698C16.7284 14.2789 16.7868 14.2894 16.8409 14.3118C16.8951 14.3343 16.9438 14.3681 16.9837 14.4111C17.0236 14.454 17.0538 14.5051 17.0722 14.5608C17.0906 14.6165 17.0967 14.6754 17.0903 14.7337C16.9905 15.8422 16.4813 16.8737 15.662 17.627C14.8427 18.3803 13.7722 18.8014 12.6593 18.808H12.6611ZM17.1232 13.0211H14.2939C14.2353 13.0207 14.1774 13.0086 14.1235 12.9856C14.0696 12.9625 14.0209 12.9289 13.9802 12.8867C13.9396 12.8445 13.9077 12.7946 13.8866 12.7399C13.8655 12.6853 13.8555 12.627 13.8573 12.5684V9.75551C13.8546 9.69818 13.8642 9.64094 13.8854 9.58762C13.9066 9.53429 13.9389 9.4861 13.9803 9.44629C14.0216 9.40648 14.071 9.37596 14.125 9.35677C14.1791 9.33759 14.2367 9.33018 14.2939 9.33505C15.1167 9.43507 15.8823 9.80788 16.4684 10.394C17.0546 10.98 17.4275 11.7456 17.5276 12.5684C17.5357 12.6257 17.5312 12.6841 17.5143 12.7395C17.4974 12.7949 17.4686 12.8459 17.4298 12.8889C17.3911 12.932 17.3434 12.966 17.2902 12.9887C17.2369 13.0113 17.1793 13.022 17.1214 13.02L17.1232 13.0211ZM28.5696 15.4139H23.3614C23.0573 15.4127 22.7659 15.2914 22.5509 15.0764C22.3358 14.8614 22.2144 14.5701 22.2132 14.266C22.2144 13.9619 22.3358 13.6706 22.5509 13.4556C22.7659 13.2406 23.0573 13.1193 23.3614 13.1181H28.567C28.8711 13.1193 29.1624 13.2406 29.3774 13.4556C29.5924 13.6706 29.7137 13.9619 29.7149 14.266C29.7134 14.5698 29.5921 14.8607 29.3773 15.0754C29.1624 15.2902 28.8715 15.4114 28.5677 15.4128L28.5696 15.4139ZM28.5696 11.1619H23.3614C23.0573 11.1608 22.7659 11.0395 22.5509 10.8245C22.3358 10.6095 22.2144 10.3182 22.2132 10.0141C22.2143 9.70996 22.3357 9.41861 22.5508 9.20358C22.7658 8.98856 23.0572 8.8673 23.3614 8.86623H28.567C28.8711 8.8673 29.1625 8.98857 29.3775 9.20361C29.5925 9.41864 29.7138 9.70999 29.7149 10.0141C29.7134 10.3178 29.5921 10.6087 29.3773 10.8235C29.1624 11.0383 28.8715 11.1595 28.5677 11.1608L28.5696 11.1619Z" fill="#55768B"/>
<path opacity="0.4" fill-rule="evenodd" clip-rule="evenodd" d="M36.8528 31.4249C36.8469 32.5366 36.4084 33.6023 35.6301 34.3961C34.8518 35.1899 33.795 35.6494 32.6836 35.6772L22.8807 35.4475C22.0056 35.4381 21.17 35.0819 20.5574 34.457C19.9447 33.8321 19.605 32.9897 19.6129 32.1146C19.6051 31.259 19.9292 30.4338 20.5171 29.8122C21.1051 29.1907 21.911 28.8213 22.7657 28.7816C22.7962 28.7807 22.8253 28.7681 22.8467 28.7463C22.8682 28.7246 22.8803 28.6953 22.8807 28.6648C22.8711 28.0065 22.9921 27.3529 23.2367 26.7417C23.4812 26.1305 23.8445 25.5739 24.3055 25.1039C24.7665 24.634 25.3161 24.2601 25.9225 24.0039C26.5289 23.7476 27.1801 23.6141 27.8384 23.6111C28.8496 23.6342 29.8315 23.9555 30.6608 24.5346C31.4901 25.1138 32.1299 25.925 32.4998 26.8664C32.5496 26.9928 32.5477 27.1741 32.6829 27.1741C33.2361 27.1783 33.7831 27.2917 34.2924 27.5078C34.8017 27.7239 35.2633 28.0385 35.6507 28.4334C36.0381 28.8284 36.3438 29.2959 36.55 29.8093C36.7563 30.3226 36.8592 30.8717 36.8528 31.4249Z" fill="#55768B"/>
</svg>
