<svg width="40" height="40" viewBox="0 0 40 40" fill="none" xmlns="http://www.w3.org/2000/svg">
<path d="M27.763 5.26605H11.6403C10.7684 5.26552 9.90502 5.4368 9.09938 5.77008C8.29375 6.10337 7.56168 6.59215 6.94502 7.20847C6.32835 7.82479 5.83917 8.55659 5.50544 9.36204C5.17171 10.1675 4.99995 11.0308 5 11.9027V27.5566C4.99995 28.4285 5.17171 29.2918 5.50544 30.0972C5.83917 30.9027 6.32835 31.6345 6.94502 32.2508C7.56168 32.8671 8.29375 33.3559 9.09938 33.6892C9.90502 34.0225 10.7684 34.1937 11.6403 34.1932H27.763C28.6349 34.1937 29.4983 34.0225 30.3039 33.6892C31.1096 33.3559 31.8416 32.8671 32.4583 32.2508C33.075 31.6345 33.5641 30.9027 33.8979 30.0972C34.2316 29.2918 34.4034 28.4285 34.4033 27.5566V11.9027C34.4034 11.0308 34.2316 10.1675 33.8979 9.36204C33.5641 8.55659 33.075 7.82479 32.4583 7.20847C31.8416 6.59215 31.1096 6.10337 30.3039 5.77008C29.4983 5.4368 28.6349 5.26552 27.763 5.26605V5.26605ZM27.6715 17.0266C27.3417 17.3581 26.9496 17.6209 26.5177 17.8001C26.0859 17.9792 25.6228 18.0711 25.1553 18.0705C24.6878 18.0708 24.2248 17.9787 23.793 17.7996C23.3612 17.6205 22.9691 17.3578 22.6391 17.0266C22.3089 16.6969 22.0471 16.3052 21.8686 15.874C21.6901 15.4429 21.5984 14.9807 21.5989 14.5141C21.5984 14.0469 21.69 13.5842 21.8685 13.1525C22.047 12.7207 22.3088 12.3284 22.6391 11.9979C22.9691 11.6668 23.3612 11.4041 23.793 11.225C24.2248 11.0458 24.6878 10.9538 25.1553 10.9541C25.6226 10.954 26.0854 11.0461 26.5171 11.225C26.9489 11.404 27.3411 11.6662 27.6714 11.9969C28.0017 12.3275 28.2636 12.72 28.4421 13.152C28.6206 13.5839 28.7122 14.0468 28.7116 14.5141C28.7129 14.9809 28.6217 15.4433 28.4432 15.8745C28.2646 16.3058 28.0023 16.6974 27.6715 17.0266V17.0266Z" fill="#55768B"/>
<path fill-rule="evenodd" clip-rule="evenodd" d="M17.8047 14.5132C17.8047 12.5487 16.2121 10.9561 14.2475 10.9561C12.283 10.9561 10.6904 12.5487 10.6904 14.5132C10.6904 16.4778 12.283 18.0703 14.2475 18.0703C16.2121 18.0703 17.8047 16.4778 17.8047 14.5132ZM17.8047 25.4216C17.8047 23.457 16.2121 21.8644 14.2475 21.8644C12.283 21.8644 10.6904 23.457 10.6904 25.4216C10.6904 27.3861 12.283 28.9787 14.2475 28.9787C16.2121 28.9787 17.8047 27.3861 17.8047 25.4216ZM25.1559 21.8644C27.1204 21.8644 28.713 23.457 28.713 25.4216C28.713 27.3861 27.1204 28.9787 25.1559 28.9787C23.1913 28.9787 21.5988 27.3861 21.5988 25.4216C21.5988 23.457 23.1913 21.8644 25.1559 21.8644Z" fill="white"/>
<path opacity="0.4" fill-rule="evenodd" clip-rule="evenodd" d="M17.8047 14.5146C17.8047 12.55 16.2121 10.9575 14.2475 10.9575C12.283 10.9575 10.6904 12.55 10.6904 14.5146C10.6904 16.4791 12.283 18.0717 14.2475 18.0717C16.2121 18.0717 17.8047 16.4791 17.8047 14.5146ZM17.8047 25.4229C17.8047 23.4584 16.2121 21.8658 14.2475 21.8658C12.283 21.8658 10.6904 23.4584 10.6904 25.4229C10.6904 27.3874 12.283 28.98 14.2475 28.98C16.2121 28.98 17.8047 27.3874 17.8047 25.4229ZM25.1559 21.8658C27.1204 21.8658 28.713 23.4584 28.713 25.4229C28.713 27.3874 27.1204 28.98 25.1559 28.98C23.1913 28.98 21.5988 27.3874 21.5988 25.4229C21.5988 23.4584 23.1913 21.8658 25.1559 21.8658Z" fill="#55768B"/>
</svg>
