<svg width="40" height="40" viewBox="0 0 40 40" fill="none" xmlns="http://www.w3.org/2000/svg">
<path d="M32.3914 10.4536C32.2804 9.08656 31.7077 7.79791 30.7674 6.79943C29.7928 5.82482 28.4936 5.419 27.0315 5.17507C25.3849 5.02691 23.7311 4.97273 22.0782 5.01282H12.9818C11.329 4.97431 9.67529 5.02848 8.02852 5.17507C6.66141 5.28651 5.37276 5.85928 4.37399 6.79943C3.31843 7.85499 2.91262 9.07317 2.75 10.4536C2.50644 12.4838 2.58774 14.4326 2.58774 16.4628C2.59521 16.9774 2.80294 17.4687 3.16681 17.8326C3.53069 18.1965 4.02206 18.4042 4.53661 18.4117H30.6037C31.1182 18.4042 31.6096 18.1965 31.9734 17.8326C32.3373 17.4687 32.5451 16.9774 32.5525 16.4628C32.6625 14.4587 32.6086 12.449 32.3914 10.4536ZM9.65398 13.4569C9.45133 13.4571 9.25066 13.4173 9.0634 13.3398C8.87615 13.2623 8.706 13.1487 8.56269 13.0054C8.41938 12.8622 8.30571 12.692 8.2282 12.5048C8.15068 12.3176 8.11084 12.1169 8.11094 11.9142C8.11079 11.7116 8.1506 11.5109 8.2281 11.3236C8.30559 11.1363 8.41924 10.9661 8.56256 10.8228C8.70587 10.6795 8.87604 10.5659 9.06331 10.4884C9.25059 10.4109 9.4513 10.3711 9.65398 10.3712C9.85666 10.3711 10.0574 10.4109 10.2447 10.4884C10.4319 10.5659 10.6021 10.6795 10.7454 10.8228C10.8887 10.9661 11.0024 11.1363 11.0799 11.3236C11.1574 11.5109 11.1972 11.7116 11.197 11.9142C11.1973 12.117 11.1575 12.3178 11.0801 12.5051C11.0026 12.6925 10.889 12.8628 10.7457 13.0061C10.6023 13.1495 10.4322 13.2633 10.2448 13.3408C10.0575 13.4183 9.85672 13.4582 9.65398 13.458V13.4569ZM22.2409 12.8914C22.2432 13.0627 22.2112 13.2328 22.1468 13.3915C22.0823 13.5502 21.9867 13.6944 21.8655 13.8156C21.7444 13.9367 21.6002 14.0324 21.4414 14.0968C21.2827 14.1613 21.1127 14.1933 20.9414 14.1909C20.7701 14.1932 20.6001 14.1612 20.4414 14.0967C20.2827 14.0322 20.1386 13.9366 20.0175 13.8154C19.8963 13.6943 19.8008 13.5501 19.7363 13.3914C19.6719 13.2327 19.6399 13.0627 19.6422 12.8914V11.1861C19.6399 11.0149 19.672 10.8449 19.7364 10.6862C19.8009 10.5276 19.8965 10.3834 20.0176 10.2623C20.1387 10.1412 20.2828 10.0456 20.4415 9.98117C20.6001 9.91671 20.7701 9.88468 20.9414 9.887C21.1126 9.88463 21.2827 9.91662 21.4414 9.98107C21.6001 10.0455 21.7442 10.1411 21.8654 10.2622C21.9865 10.3833 22.0822 10.5275 22.1466 10.6862C22.2111 10.8448 22.2432 11.0149 22.2409 11.1861V12.8914ZM26.3012 12.8914C26.3036 13.0627 26.2716 13.2328 26.2071 13.3915C26.1426 13.5502 26.047 13.6944 25.9259 13.8156C25.8047 13.9367 25.6605 14.0324 25.5018 14.0968C25.3431 14.1613 25.173 14.1933 25.0017 14.1909C24.8304 14.1932 24.6604 14.1612 24.5017 14.0967C24.3431 14.0322 24.1989 13.9366 24.0778 13.8154C23.9567 13.6943 23.8611 13.5501 23.7967 13.3914C23.7322 13.2327 23.7002 13.0627 23.7026 12.8914V11.1861C23.6935 11.0131 23.7208 10.8401 23.7829 10.6784C23.8449 10.5166 23.9403 10.3697 24.0628 10.2472C24.1853 10.1247 24.3322 10.0294 24.494 9.96729C24.6557 9.90523 24.8287 9.87788 25.0017 9.887C25.173 9.88463 25.343 9.91662 25.5017 9.98107C25.6604 10.0455 25.8046 10.1411 25.9257 10.2622C26.0469 10.3833 26.1425 10.5275 26.207 10.6862C26.2715 10.8448 26.3035 11.0149 26.3012 11.1861V12.8914Z" fill="#55768B"/>
<path d="M21.0214 20.8802H4.53682C4.0095 20.8706 3.49983 21.0702 3.11936 21.4355C2.73888 21.8007 2.51857 22.3018 2.50665 22.8291C2.50665 24.8593 2.42533 26.8081 2.83152 28.8383C2.94267 30.2053 3.51534 31.4939 4.45551 32.4925C5.43012 33.5484 6.72925 33.9542 8.10969 34.1168C9.75648 34.265 11.4104 34.3192 13.0633 34.2791H15.4997C15.6825 34.2756 15.8619 34.2284 16.0228 34.1415C16.1837 34.0546 16.3216 33.9306 16.4248 33.7796C16.5281 33.6287 16.5938 33.4553 16.6165 33.2738C16.6392 33.0924 16.6182 32.9081 16.5553 32.7364C16.3955 32.2655 16.3132 31.7719 16.3117 31.2747C16.3117 27.8641 19.2348 26.9707 20.453 26.6459C20.5504 26.6133 20.7779 26.5646 20.7779 26.5646C20.7779 25.1841 21.3463 23.8037 21.996 22.6668C22.1076 22.4915 22.1701 22.2895 22.1771 22.0818C22.1841 21.8742 22.1353 21.6684 22.0358 21.486C21.9363 21.3036 21.7897 21.1512 21.6113 21.0446C21.4329 20.9381 21.2292 20.8813 21.0214 20.8802ZM9.65273 28.9196C9.23514 28.9019 8.84079 28.7226 8.55289 28.4196C8.26499 28.1166 8.10608 27.7136 8.10969 27.2956C8.10954 27.0929 8.14935 26.8922 8.22685 26.7049C8.30434 26.5177 8.41799 26.3475 8.56131 26.2042C8.70462 26.0609 8.87479 25.9472 9.06206 25.8697C9.24934 25.7922 9.45005 25.7524 9.65273 25.7526C10.0703 25.7703 10.4647 25.9496 10.7526 26.2526C11.0405 26.5556 11.1994 26.9586 11.1958 27.3766C11.1959 27.5792 11.1561 27.78 11.0786 27.9672C11.0011 28.1545 10.8875 28.3247 10.7442 28.468C10.6008 28.6113 10.4307 28.725 10.2434 28.8024C10.0561 28.8799 9.85541 28.9198 9.65273 28.9196Z" fill="#55768B"/>
<path opacity="0.4" d="M32.7519 27.0444C32.6157 27.0469 32.6138 26.8653 32.5622 26.7393C32.1724 25.8009 31.5143 24.9985 30.6703 24.4326C29.8264 23.8667 28.8341 23.5626 27.818 23.5583C27.1565 23.5738 26.5046 23.7203 25.9001 23.9893C25.2956 24.2584 24.7505 24.6447 24.2963 25.1259C23.8421 25.6071 23.4879 26.1736 23.2541 26.7926C23.0203 27.4116 22.9116 28.0708 22.9343 28.7321C22.9348 28.7629 22.9232 28.7928 22.902 28.8152C22.8808 28.8375 22.8516 28.8507 22.8208 28.8519C21.9636 28.9083 21.1616 29.2946 20.5831 29.9297C20.0047 30.5648 19.6948 31.3994 19.7186 32.2581C19.7274 33.1372 20.0846 33.9769 20.7119 34.5928C21.3392 35.2088 22.1852 35.5506 23.0643 35.5434L32.9145 35.587C34.0302 35.5378 35.0828 35.056 35.8493 34.2438C36.6157 33.4316 37.0358 32.3529 37.0203 31.2362C37.0164 30.6804 36.9028 30.1308 36.686 29.6189C36.4692 29.1071 36.1534 28.6432 35.7568 28.2537C35.3602 27.8642 34.8906 27.5569 34.375 27.3494C33.8593 27.1418 33.3077 27.0382 32.7519 27.0444Z" fill="#55768B"/>
</svg>
