<svg width="40" height="40" viewBox="0 0 40 40" fill="none" xmlns="http://www.w3.org/2000/svg">
<path fill-rule="evenodd" clip-rule="evenodd" d="M17.8489 13.5108C17.4508 13.3112 16.993 13.2655 16.5633 13.3826C16.1976 13.5512 15.9045 13.8453 15.7371 14.2115C15.5698 14.5778 15.5394 14.9919 15.6514 15.3787L16.0432 16.9134C16.0538 16.9092 16.0649 16.9067 16.0762 16.906L18.8305 16.1992C18.8818 16.1845 18.9367 16.1699 18.988 16.1589L18.5631 14.5034C18.5199 14.2973 18.434 14.1025 18.311 13.9315C18.188 13.7606 18.0306 13.6173 17.8489 13.5108Z" fill="#55768B"/>
<path fill-rule="evenodd" clip-rule="evenodd" d="M32.5614 16.7888C32.0583 16.8739 31.5422 16.8375 31.0561 16.6826C30.6019 16.5544 30.0635 16.3457 29.4409 16.1039L26.7928 15.0784C26.1702 14.8367 25.6318 14.6279 25.2106 14.4155C24.7472 14.2016 24.3416 13.8801 24.0276 13.4778C23.7569 13.1089 23.5706 12.6851 23.4818 12.2362C23.3954 11.7335 23.4306 11.2173 23.5844 10.7309C23.7126 10.2731 23.9213 9.73835 24.1631 9.1157L24.1997 9.02414C24.4414 8.4015 24.6465 7.86309 24.8626 7.4419C25.0739 6.97794 25.3943 6.57204 25.7966 6.25888C26.0647 6.06228 26.3628 5.91016 26.6793 5.80838C26.3533 5.68752 26.0127 5.56299 25.6537 5.43114L24.0642 4.84878C24.0019 4.8268 23.9433 4.80483 23.8847 4.78285C22.1743 4.15655 21.0682 3.75 19.8998 3.75C18.7314 3.75 17.6253 4.15655 15.9112 4.78285C15.8526 4.80483 15.794 4.8268 15.7318 4.84878L14.1459 5.43114C12.7439 5.90964 11.3674 6.45975 10.0218 7.0793C8.99932 7.53526 8.11137 8.24664 7.44333 9.14501C6.82941 10.0811 6.46736 11.1596 6.39216 12.2765C6.27191 13.753 6.2279 15.2346 6.26031 16.7156V21.2059C6.26031 22.7149 6.26031 23.9199 6.35553 24.9051C6.416 25.8505 6.68092 26.7715 7.13201 27.6045C7.62207 28.4141 8.28337 29.1067 9.06952 29.6336C9.87162 30.2159 10.9155 30.8239 12.2157 31.5821L13.8382 32.5307C15.1604 33.3035 16.2189 33.9225 17.1345 34.34C17.9932 34.7739 18.938 35.0104 19.8998 35.0322C20.8604 35.01 21.8039 34.7735 22.6614 34.34C23.5771 33.9225 24.6355 33.3035 25.9577 32.5307L27.5803 31.5821C28.8842 30.8239 29.9243 30.2159 30.7264 29.6336C31.5126 29.1066 32.1739 28.4141 32.6639 27.6045C33.1167 26.7722 33.3817 25.8508 33.4404 24.9051C33.5356 23.9199 33.5356 22.7149 33.5356 21.2059V16.4153C33.2337 16.5926 32.9045 16.7188 32.5614 16.7888ZM24.7711 22.7882C24.6279 23.2233 24.3917 23.622 24.0788 23.9565C23.7202 24.3198 23.2792 24.5912 22.7933 24.7477C22.3501 24.9088 21.7934 25.0516 21.1451 25.2165L18.3908 25.9233C17.7462 26.0918 17.1858 26.2347 16.7207 26.3043C16.2204 26.4023 15.7038 26.3771 15.2154 26.231C14.7791 26.0898 14.379 25.8548 14.0433 25.5424C13.6814 25.1834 13.4113 24.7424 13.2559 24.2569C13.0947 23.81 12.9519 23.2533 12.7834 22.605L12.7614 22.5135C12.5929 21.8652 12.4501 21.3085 12.3768 20.8397C12.2825 20.3391 12.3076 19.8234 12.4501 19.3343C12.5933 18.8992 12.8295 18.5005 13.1423 18.166C13.4025 17.8943 13.7136 17.6765 14.058 17.525L13.6404 15.8952C13.3962 14.9994 13.4933 14.0448 13.9128 13.2165C14.3324 12.3882 15.0446 11.7452 15.9112 11.4121C15.94 11.4019 15.9694 11.3934 15.9991 11.3865C16.9757 11.1145 18.02 11.2368 18.9072 11.7271C19.3235 11.9714 19.6859 12.2976 19.9724 12.686C20.2588 13.0745 20.4634 13.5171 20.5737 13.987L21.0279 15.7633C21.3601 15.7465 21.6927 15.7899 22.0095 15.8915C22.4444 16.0333 22.8431 16.2683 23.1778 16.5801C23.5396 16.9399 23.8107 17.3805 23.969 17.8656C24.1301 18.3125 24.2729 18.8692 24.4378 19.5175L24.4634 19.609C24.6282 20.2573 24.7711 20.814 24.8443 21.2828C24.9405 21.7833 24.9154 22.2994 24.7711 22.7882Z" fill="#55768B"/>
<path opacity="0.4" fill-rule="evenodd" clip-rule="evenodd" d="M32.1129 5.08939C32.0946 5.08255 32.0759 5.07633 32.0569 5.07071C31.493 4.92425 30.8948 4.9923 30.3781 5.26167C29.8615 5.53105 29.4633 5.98257 29.2605 6.52879L28.8785 7.5133C28.6481 7.46457 28.4104 7.46183 28.1789 7.50524C27.897 7.56172 27.6307 7.67909 27.3988 7.84916C27.1469 8.04589 26.9459 8.30025 26.8128 8.59083C26.6791 8.85564 26.5484 9.1926 26.3967 9.58339L26.3748 9.64016C26.2228 10.0313 26.0924 10.3679 26.0125 10.6536C25.9137 10.9585 25.89 11.2828 25.9433 11.5989C25.9995 11.8809 26.1169 12.1471 26.2872 12.3787C26.4837 12.6309 26.7381 12.8319 27.0289 12.9647C27.2937 13.0988 27.6303 13.2291 28.0211 13.3811L29.6839 14.0261C30.0747 14.1778 30.4117 14.3085 30.6973 14.3884C31.0021 14.4858 31.3258 14.5086 31.6412 14.4546C31.9231 14.3984 32.1893 14.281 32.421 14.1107C32.6729 13.9141 32.8739 13.6597 33.007 13.3691C33.1407 13.1042 33.2714 12.7677 33.423 12.3765L33.445 12.3197C33.5967 11.9286 33.7274 11.592 33.8073 11.3063C33.9049 11.0016 33.9276 10.6778 33.8735 10.3624C33.8172 10.0804 33.6998 9.81412 33.5296 9.5823C33.405 9.41555 33.2514 9.27251 33.0762 9.16L33.4923 8.08759C33.6075 7.80728 33.6647 7.50653 33.6605 7.2035C33.6563 6.90046 33.5907 6.60142 33.4677 6.32442C33.1949 5.75152 32.7086 5.30821 32.1129 5.08939ZM31.8932 8.61574L32.2807 7.61695C32.3343 7.49627 32.3619 7.3657 32.3619 7.23366C32.3619 7.10162 32.3343 6.97105 32.2807 6.85037C32.1519 6.60227 31.9348 6.41137 31.6723 6.31526C31.424 6.26734 31.1668 6.31006 30.9473 6.43567C30.7278 6.56128 30.5606 6.76144 30.4761 6.9998L30.1168 7.9257L30.1377 7.93413L31.8002 8.57911L31.8932 8.61574Z" fill="#55768B"/>
</svg>
